<svg xmlns="http://www.w3.org/2000/svg" width="63" height="60" viewBox="0 0 63 60"><g><g><path fill="#f58f0b" d="M62.708 13.65c-1.127 1.945-2.256 3.884-3.381 5.83-.705 1.22-1.333 1.396-2.536.706-.277-.158-.555-.316-.864-.494-.13.21-.24.375-.34.548-2.302 3.985-4.608 7.973-6.894 11.97a2.18 2.18 0 0 0-.276 1.026c-.021 2.884-.012 5.77-.012 8.65 0 1.468-.175 1.7-1.631 2.1v.64c0 1.828-.01 3.657.006 5.483.005.542-.157.983-.542 1.368-2.501 2.495-4.984 5.006-7.51 7.476a1.956 1.956 0 0 1-1.235.511c-4.12.034-8.24.034-12.36 0-.416-.005-.928-.227-1.228-.52-2.525-2.472-5.007-4.985-7.511-7.476-.405-.404-.556-.875-.554-1.428.008-1.99.003-3.98.003-6.008-.207-.055-.397-.1-.585-.155-.637-.186-1.01-.614-1.011-1.28-.01-3.494.001-6.986-.004-10.48 0-.21-.036-.448-.138-.625-2.254-3.923-4.52-7.84-6.784-11.754-.05-.087-.114-.162-.196-.278-.369.21-.714.416-1.065.61-.912.5-1.654.32-2.171-.568-1.142-1.963-2.266-3.938-3.399-5.906-.038-.067-.09-.128-.136-.19v-.853c.292-.295.537-.67.882-.87A6686.153 6686.153 0 0 1 20.981.259c.892-.515 1.655-.313 2.169.568a622.824 622.824 0 0 1 3.25 5.642c.522.913.303 1.65-.616 2.204-.339.204-.677.41-1.031.625L31.61 21.16c2.26-3.922 4.472-7.761 6.708-11.645-.35-.205-.645-.376-.94-.55-1.065-.615-1.26-1.306-.655-2.366 1.027-1.796 2.06-3.59 3.094-5.382C40.444.132 41.135-.046 42.24.59c6.41 3.7 12.822 7.397 19.22 11.118.469.272.834.719 1.248 1.087v.855zM17.063 41.123c.675 0 1.28-.023 1.882.008.44.02.606-.105.697-.576 1.053-5.47 5.622-9.384 11.033-9.496 5.596-.116 10.333 3.514 11.63 8.919.088.368.156.743.232 1.11h2.95c.026-.09.058-.144.059-.201.004-2.456.015-4.912-.01-7.37-.003-.195-.222-.46-.411-.57-4.47-2.598-8.951-5.179-13.422-7.773-.289-.166-.487-.158-.767.003-4.472 2.593-8.95 5.18-13.434 7.754-.352.202-.45.437-.447.822.017 2.192.008 4.386.008 6.58v.79zm22.689 1.528a8.766 8.766 0 0 0-8.784-8.786 8.785 8.785 0 0 0-8.782 8.735c-.028 4.834 3.926 8.819 8.761 8.826 4.856.01 8.801-3.925 8.805-8.775zm2.779 1.358c-.821 5.967-5.562 9.869-10.79 10.211-6.138.402-11.676-4.206-12.305-10.216h-.78v.62c0 1.522-.02 3.045.017 4.567.007.3.157.673.368.886a462.422 462.422 0 0 0 6.2 6.2c.213.212.585.361.885.364 3.45.026 6.899.028 10.347-.001a1.49 1.49 0 0 0 .936-.397c1.929-1.886 3.805-3.828 5.749-5.7.588-.567.847-1.129.81-1.952-.068-1.513-.02-3.035-.02-4.582h-1.417zM3.705 13.55c.69 1.188 1.347 2.32 2.02 3.474 5.903-3.413 11.736-6.791 17.61-10.192-.694-1.194-1.35-2.32-2.018-3.475C15.423 6.77 9.602 10.136 3.705 13.55zm55.625.236c-5.884-3.408-11.734-6.79-17.611-10.193l-2.016 3.479c5.885 3.403 11.733 6.788 17.613 10.19.69-1.193 1.339-2.31 2.014-3.476zm-24.058 6.69l-1.482 2.602 12.673 7.32c.506-.865.994-1.702 1.509-2.586l-12.7-7.336zm-20.16 7.117l1.515 2.595c4.226-2.463 8.418-4.906 12.65-7.376-.512-.871-.988-1.685-1.49-2.542-4.243 2.45-8.432 4.871-12.674 7.323zm35.65-4.622l-12.677-7.324c-.48.83-.914 1.58-1.379 2.387l12.677 7.325 1.379-2.388zm-24.377-5.175c-.487-.843-.921-1.592-1.382-2.384l-12.675 7.324c.484.833.925 1.598 1.382 2.385 4.247-2.454 8.434-4.872 12.675-7.325zm27.056.502l-12.676-7.325-1.274 2.2c4.25 2.458 8.451 4.885 12.678 7.326.436-.754.839-1.454 1.272-2.201zm-42.544 1.992c4.235-2.445 8.435-4.875 12.675-7.325-.44-.757-.841-1.454-1.275-2.203-4.247 2.46-8.447 4.885-12.673 7.327l1.273 2.201zM30.95 47.058c-2.427-.02-4.413-2.039-4.386-4.45a4.45 4.45 0 0 1 4.456-4.39 4.426 4.426 0 0 1 4.407 4.486c-.027 2.426-2.033 4.377-4.477 4.354zm.091-9.711a1.432 1.432 0 0 1-1.421-1.435 1.447 1.447 0 0 1 1.445-1.417c.779.009 1.43.666 1.422 1.441a1.432 1.432 0 0 1-1.446 1.41zm.01 10.423c.782 0 1.435.645 1.436 1.424a1.416 1.416 0 0 1-1.43 1.416 1.413 1.413 0 0 1-1.437-1.41 1.44 1.44 0 0 1 1.43-1.43zm-5.237-5.218a1.417 1.417 0 0 1-1.41 1.437 1.406 1.406 0 0 1-1.424-1.418c-.004-.806.607-1.428 1.406-1.433a1.405 1.405 0 0 1 1.428 1.414zm13.286.005c.002.8-.618 1.429-1.41 1.432a1.41 1.41 0 0 1-1.422-1.421 1.403 1.403 0 0 1 1.411-1.431 1.4 1.4 0 0 1 1.42 1.42zm-8.13-1.494c.863-.012 1.616.714 1.622 1.563-.006-.849-.76-1.575-1.622-1.563zm.031 3.167c.837.003 1.596-.764 1.59-1.604.006.84-.753 1.607-1.59 1.604z"/></g></g></svg>