<svg xmlns="http://www.w3.org/2000/svg" width="53" height="57" viewBox="0 0 53 57"><g><g><path fill="#f58f0b" d="M29.369.73c.543.149 1.137.207 1.62.472.825.449 1.662.94 2.348 1.57 1.454 1.34 2.81 2.784 4.212 4.176 1.383 1.377 2.044 3.035 2.042 4.984-.006 9.853 0 19.703-.005 29.555-.001 3.812-2.896 6.717-6.705 6.719-8.714.008-17.429.008-26.143 0-3.806-.002-6.706-2.91-6.707-6.717C.027 30.172.028 18.856.03 7.54.03 4.09 2.15 1.516 5.553.819c.067-.013.127-.059.19-.09H29.37zM4.425 24.414v16.921c0 1.601.876 2.478 2.477 2.478H32.72c1.597 0 2.473-.883 2.473-2.484.001-9.78-.003-19.555.008-29.337.001-.825-.276-1.478-.862-2.054a248.588 248.588 0 0 1-3.962-3.958c-.589-.605-1.263-.865-2.107-.863-7.104.015-14.208.008-21.312.008-1.68 0-2.532.853-2.532 2.53v16.76zM19.369 57c-.15-.063-.3-.126-.448-.195-.926-.416-1.46-1.41-1.28-2.377a2.202 2.202 0 0 1 2.058-1.818c.182-.01.366-.006.549-.006h25.538c1.755 0 2.593-.834 2.593-2.582 0-9.723-.005-19.445.01-29.168 0-.866-.269-1.552-.892-2.149-.939-.9-1.846-1.831-2.761-2.755-.957-.964-1.005-2.284-.126-3.184.897-.918 2.246-.89 3.226.08.963.952 1.911 1.92 2.876 2.872 1.403 1.386 2.07 3.058 2.066 5.029-.01 7.176-.003 14.354-.003 21.53v7.857c-.002 3.5-2.101 6.074-5.525 6.776-.066.014-.126.06-.19.09H19.37zm.415-43.083c2.928 0 5.856-.006 8.784.002 1.076.003 1.902.666 2.162 1.684.24.944-.185 1.97-1.07 2.418-.331.167-.73.279-1.098.28-5.838.017-11.675.017-17.513.01-1.28-.005-2.242-.989-2.227-2.228.015-1.21.973-2.16 2.233-2.163 2.91-.012 5.82-.003 8.729-.003zm.03 13.188c-2.928 0-5.856.008-8.783-.003-1.067-.003-1.897-.682-2.15-1.7-.229-.922.185-1.934 1.046-2.382a2.636 2.636 0 0 1 1.147-.298c5.819-.018 11.638-.016 17.457-.01 1.295.003 2.26.953 2.264 2.19.003 1.236-.961 2.197-2.252 2.2-2.91.01-5.82.003-8.729.003zm-4.4 8.793c-1.409 0-2.817.003-4.225-.002-1.382-.003-2.367-.92-2.367-2.195s.984-2.197 2.365-2.198c2.817-.003 5.634-.003 8.45 0 1.384.002 2.367.92 2.367 2.197.001 1.275-.983 2.193-2.365 2.196-1.408.005-2.817.002-4.225.002z"/></g></g></svg>