<svg xmlns="http://www.w3.org/2000/svg" width="57" height="57" viewBox="0 0 57 57"><g><g><path fill="#f58f0b" d="M16.65 57c-.596-.16-1.21-.27-1.784-.485-2.722-1.028-4.407-3.819-4.076-6.694.367-3.185 2.475-5.445 5.5-5.861a14.956 14.956 0 0 1 1.855-.106c2.43-.01 4.858-.005 7.287-.005h.64v-.641c0-2.906-.011-5.809.005-8.71.009-1.603 1.382-2.61 2.876-2.148.942.294 1.498 1.106 1.5 2.24.006 2.867.002 5.733.002 8.602v.657h.623c2.684 0 5.369-.015 8.053.004 3.368.024 5.983 2.202 6.537 5.415.644 3.733-1.723 7.028-5.48 7.636-.104.015-.203.064-.304.096H16.65zm11.599-4.382h2.135c2.902 0 5.804.009 8.706-.003 1.642-.01 2.67-1.365 2.205-2.88-.294-.956-1.114-1.5-2.29-1.5H17.54c-.127 0-.256-.003-.383.01-.949.078-1.677.652-1.936 1.52-.45 1.517.584 2.847 2.241 2.85 3.596.007 7.191.003 10.787.003zM56.213 14.26c-.46 1.326-1.406 1.823-2.782 1.765-1.473-.061-2.952.006-4.428-.02-1.6-.028-2.605-1.481-2.077-2.963.299-.836 1.06-1.393 2.022-1.406 1.713-.018 3.427-.027 5.14.003 1.134.023 1.756.748 2.125 1.744v.877zM.102 13.383c.414-1.31 1.338-1.804 2.671-1.764 1.515.045 3.032-.01 4.547.017 1.542.03 2.512 1.365 2.094 2.83-.258.904-1.038 1.522-2.04 1.536-1.716.023-3.433.032-5.149-.003-1.128-.025-1.788-.705-2.123-1.74v-.876zM3.828.89c1.645.585 3.293 1.16 4.934 1.752 1.188.433 1.77 1.553 1.43 2.702-.34 1.15-1.522 1.845-2.663 1.48a128.548 128.548 0 0 1-4.953-1.717c-.875-.32-1.386-1.133-1.38-2.04.006-.903.544-1.68 1.404-2.032.117-.05.234-.097.351-.145h.877zm49.535 0c.149.065.299.126.445.195.838.4 1.291 1.073 1.294 1.991.003.92-.425 1.655-1.288 1.984a96.754 96.754 0 0 1-5.104 1.78c-1.086.342-2.235-.351-2.586-1.455-.363-1.136.207-2.304 1.374-2.728 1.574-.57 3.161-1.104 4.742-1.658.085-.029.165-.073.247-.109h.876zM34.326 29.53c-.77-.252-1.571-.436-2.306-.766-1.062-.479-2.084-1.052-3.11-1.606-.376-.204-.697-.204-1.076 0-1.123.607-2.246 1.22-3.4 1.76-3.439 1.62-7.47-1.176-7.101-4.942.13-1.322.412-2.63.657-3.937.077-.412-.032-.694-.325-.97-.812-.763-1.607-1.543-2.41-2.314-1.534-1.478-2.08-3.254-1.412-5.288.676-2.057 2.205-3.144 4.325-3.439 1.102-.155 2.21-.28 3.302-.485.29-.053.632-.305.775-.563.574-1.035 1.075-2.114 1.61-3.17.93-1.836 2.463-2.775 4.49-2.785 2.049-.009 3.6.932 4.542 2.788.52 1.022 1.04 2.048 1.532 3.087.202.424.488.625.958.683 1.212.15 2.423.318 3.625.533 1.972.35 3.306 1.512 3.915 3.402.605 1.878.163 3.58-1.203 5-.834.868-1.72 1.69-2.598 2.512-.321.302-.452.6-.36 1.06.233 1.164.422 2.334.6 3.505a5.008 5.008 0 0 1-4.984 5.794l-.046.14zm-.027-4.533c.526.006.806-.344.725-.82-.186-1.097-.366-2.195-.58-3.288-.381-1.95.139-3.6 1.587-4.966a67.339 67.339 0 0 0 2.315-2.255c.201-.209.424-.59.357-.809-.067-.215-.47-.41-.752-.462a52.121 52.121 0 0 0-3.085-.456c-2.074-.253-3.552-1.295-4.425-3.208a39.366 39.366 0 0 0-1.378-2.734c-.14-.253-.45-.565-.685-.57-.233-.004-.556.304-.692.555-.572 1.057-1.069 2.156-1.633 3.217-.796 1.5-2.05 2.392-3.732 2.656-1.189.187-2.384.334-3.57.545-.267.047-.642.233-.713.442-.07.202.12.582.307.775.814.84 1.675 1.629 2.508 2.448 1.209 1.193 1.751 2.628 1.505 4.32-.176 1.21-.42 2.407-.592 3.617-.038.271.016.701.188.815.208.135.63.103.883-.017 1.053-.5 2.077-1.06 3.114-1.6 1.607-.827 3.218-.83 4.827-.004 1.038.536 2.071 1.077 3.108 1.612.16.08.328.147.413.187zM10.18 22.58c.003.915-.545 1.754-1.442 2.06-1.62.552-3.248 1.085-4.886 1.58-1.136.342-2.294-.305-2.656-1.418-.363-1.117.184-2.331 1.304-2.72 1.634-.566 3.28-1.106 4.938-1.595 1.376-.408 2.736.664 2.742 2.093zm45.042 1.572c-.02 1.404-1.365 2.476-2.71 2.081a101.577 101.577 0 0 1-4.989-1.615c-1.117-.391-1.653-1.618-1.278-2.73.374-1.109 1.525-1.74 2.669-1.391 1.62.49 3.23 1.019 4.834 1.562a2.156 2.156 0 0 1 1.474 2.093z"/></g></g></svg>