<svg xmlns="http://www.w3.org/2000/svg" width="41" height="47" viewBox="0 0 41 47"><g><g><path fill="#f58f0b" d="M19.143 47c-.8-.116-1.608-.197-2.4-.35-6.427-1.261-11.12-4.855-14.08-10.657C.668 32.082.03 27.91.753 23.568c.518-3.116 1.836-5.891 3.807-8.344 1.42-1.766 2.908-3.48 4.378-5.209.59-.692 1.438-.867 2.195-.497.727.356 1.146 1.13.962 1.946-.082.364-.314.703-.515 1.03-.552.906-.254 2.063.676 2.56.933.497 2.088.096 2.478-.888.097-.243.119-.524.14-.79.418-5.54 3.099-9.604 7.996-12.212.224-.121.461-.212.693-.316h.721c1.054.357 1.454 1.103 1.46 2.201.016 3.202 1.347 5.85 3.634 8.016 1.559 1.475 3.211 2.852 4.81 4.288 2.008 1.799 3.772 3.79 4.835 6.315.964 2.29 1.272 4.682 1.076 7.144a34.503 34.503 0 0 1-.311 2.497c-.166 1.08-1.088 1.777-2.075 1.605-1.063-.186-1.674-1.124-1.469-2.246.385-2.106.465-4.21-.09-6.299-.626-2.348-2.044-4.193-3.8-5.796-1.486-1.357-3.035-2.646-4.53-3.994-1.649-1.486-3.147-3.12-4.11-5.143-.506-1.06-.827-2.212-1.23-3.323-.034-.095-.054-.196-.107-.391-.41.399-.789.73-1.127 1.1-1.834 2.007-2.66 4.404-2.807 7.09-.123 2.228-1.657 4.093-3.817 4.736-2.134.64-4.487-.135-5.834-1.92-.116-.154-.226-.312-.404-.562-.662.887-1.356 1.696-1.92 2.593-3.003 4.754-3.125 9.767-.955 14.813 2.211 5.141 6.137 8.47 11.67 9.478 6.39 1.165 11.896-.585 16.094-5.755.69-.85 1.777-1.006 2.594-.361.797.63.915 1.707.248 2.573-2.88 3.73-6.656 6.046-11.251 7.03-.994.212-2.012.312-3.02.464h-2.705zM16.674 34.74c-.678-.032-1.248-.347-1.578-1.012-.33-.668-.244-1.314.199-1.905.125-.167.284-.313.432-.46 2.274-2.274 4.55-4.543 6.821-6.818.531-.532 1.145-.762 1.884-.543a1.785 1.785 0 0 1 .931 2.795c-.09.122-.194.232-.3.338-2.315 2.315-4.634 4.628-6.947 6.946-.387.389-.829.637-1.442.659zm1.836-10.81a1.812 1.812 0 0 1-1.812 1.793 1.81 1.81 0 0 1-1.792-1.813 1.798 1.798 0 0 1 1.812-1.787 1.796 1.796 0 0 1 1.792 1.807zm7.215 10.794a1.813 1.813 0 0 1-1.791 1.815 1.81 1.81 0 0 1-1.814-1.793 1.794 1.794 0 0 1 1.79-1.807 1.799 1.799 0 0 1 1.815 1.785z"/></g></g></svg>