<svg xmlns="http://www.w3.org/2000/svg" width="45" height="52" viewBox="0 0 45 52"><g><g><path fill="#f58f0b" d="M23.597.585c.99.208 1.999.357 2.967.64 2.178.637 4.082 1.837 5.987 3.036 1.678 1.053 3.368 2.094 5.097 3.061.72.404 1.544.626 2.334.895 2.45.832 4.14 3.026 4.188 5.466.024 1.198-.777 2.094-1.906 2.136-1.094.038-1.97-.802-2.025-1.97-.042-.895-.512-1.558-1.31-1.788-3.486-1.013-6.37-3.121-9.371-5.02-1.64-1.038-3.338-1.95-5.273-2.336-2.273-.45-4.429-.05-6.43 1.02-1.73.925-3.388 1.993-5.048 3.045-2.042 1.295-4.118 2.494-6.46 3.18-1.085.321-1.555 1.049-1.555 2.174 0 3.613-.008 7.229.001 10.84.026 9.882 6.287 18.49 15.669 21.548.576.189 1.164.342 1.754.478.214.049.463.046.675-.013 9.198-2.536 14.847-8.472 16.945-17.785.48-2.13.413-4.306.401-6.476-.001-.246-.014-.495.022-.737a1.969 1.969 0 0 1 2.051-1.675c.984.05 1.821.84 1.854 1.834.126 3.912-.074 7.79-1.443 11.507C39.38 42.72 33 48.432 23.66 50.852c-.252.066-.502.136-.753.204h-.788c-.123-.042-.243-.09-.369-.118-2.138-.469-4.217-1.132-6.146-2.162C6.03 43.672 1.113 35.661.866 24.811c-.08-3.561-.014-7.126-.012-10.69.001-2.858 1.624-5.067 4.337-5.952.76-.248 1.548-.477 2.238-.868 1.725-.975 3.414-2.014 5.092-3.066 1.906-1.196 3.811-2.392 5.991-3.022.954-.275 1.945-.424 2.919-.628h2.166zM22.51 15.568c1.296 0 2.591-.004 3.887.002 3.349.014 5.951 2.619 5.962 5.971.008 2.596.009 5.189 0 7.783-.012 3.328-2.612 5.942-5.928 5.958a830.58 830.58 0 0 1-7.822 0c-3.317-.014-5.926-2.628-5.938-5.947-.009-2.611-.01-5.22 0-7.832a5.916 5.916 0 0 1 5.903-5.933c1.312-.01 2.624-.002 3.936-.002zm-1.964 3.944h-1.819c-.131.001-.263-.002-.393.014a1.948 1.948 0 0 0-1.72 1.912 654.98 654.98 0 0 0 0 7.978 1.92 1.92 0 0 0 1.917 1.917c2.656.017 5.312.017 7.968 0a1.918 1.918 0 0 0 1.916-1.918c.017-2.66.015-5.32 0-7.977-.004-.905-.597-1.707-1.485-1.835-.792-.116-1.614-.025-2.446-.025 0 .63.008 1.254-.002 1.876-.02 1.15-.884 2.012-1.993 2-1.084-.012-1.924-.873-1.94-2.002-.01-.623-.003-1.245-.003-1.94z"/></g></g></svg>