<svg xmlns="http://www.w3.org/2000/svg" width="47" height="47" viewBox="0 0 47 47"><g><g><path fill="#f58f0b" d="M0 23.299c.114-.513.203-1.033.344-1.537 1.092-3.886 4.598-6.593 8.626-6.6 9.438-.017 18.877-.011 28.315-.004 2.995.004 5.393 2.418 5.412 5.415.011 1.671.002 3.341.002 5.078.47 0 .918.026 1.362-.005 1.122-.078 1.892.364 2.257 1.452v7.961c-.367 1.082-1.134 1.53-2.256 1.452-.443-.03-.89-.006-1.363-.006 0 1.747.021 3.43-.006 5.116-.028 1.767-.773 3.19-2.16 4.283-.75.591-1.638.855-2.538 1.098H8.142c-.084-.028-.166-.068-.252-.082-3.846-.638-6.362-2.818-7.543-6.527-.158-.499-.233-1.022-.347-1.535v-15.56zm39.08 2.352c0-1.664.002-3.26 0-4.856-.001-1.29-.728-2.02-2.014-2.02-9.3-.001-18.6-.003-27.9 0-3.164.003-5.544 2.386-5.546 5.55a7504.6 7504.6 0 0 0 0 13.522c.003 3.136 2.385 5.532 5.517 5.534 9.315.004 18.63.001 27.945.001.076 0 .151.002.226-.001.98-.039 1.754-.786 1.766-1.766.02-1.64.006-3.283.003-4.927 0-.054-.027-.11-.046-.183-1.822 0-3.63.012-5.437-.002-2.574-.021-4.832-1.923-5.276-4.422-.466-2.623.96-5.182 3.445-6.067a6.587 6.587 0 0 1 1.984-.347c1.76-.047 3.52-.016 5.334-.016zm3.61 3.687c-.051-.037-.063-.052-.075-.052-3.03-.007-6.06-.019-9.089-.005-.724.005-1.356.536-1.586 1.219-.4 1.194.467 2.38 1.766 2.385 2.894.008 5.788.003 8.683.002.099 0 .198-.026.301-.042v-3.507zM20.626.683c.082.03.16.072.245.087 1.375.266 2.505.946 3.35 2.057a621.556 621.556 0 0 1 4.313 5.75c.663.894.515 1.995-.323 2.603-.844.615-1.914.434-2.585-.458-1.352-1.794-2.696-3.592-4.042-5.39-.92-1.23-1.844-1.361-3.078-.434a5182.768 5182.768 0 0 1-8.248 6.182c-1.166.873-2.651.404-2.967-.947-.19-.808.12-1.442.773-1.93 2.51-1.877 5.015-3.76 7.525-5.638.494-.372.964-.797 1.507-1.073.66-.338 1.386-.545 2.083-.81h1.447zm10.856 0c.17.05.337.104.509.146 1.264.302 2.302.965 3.085 1.998 1.44 1.896 2.864 3.8 4.285 5.708.688.924.559 2.021-.288 2.642-.853.626-1.922.434-2.613-.484-1.359-1.805-2.72-3.607-4.061-5.423-.452-.616-.996-.96-1.777-.984-.847-.028-1.529-.699-1.657-1.53-.125-.807.33-1.602 1.102-1.933l.33-.14h1.085z"/></g></g></svg>