<svg xmlns="http://www.w3.org/2000/svg" width="45" height="47" viewBox="0 0 45 47"><g><g><path fill="#f58f0b" d="M21.816.694c1.5.245 2.715 1.114 3.988 1.845 4.44 2.553 8.86 5.136 13.313 7.664 2.151 1.224 3.176 3.003 3.151 5.471-.037 3.721-.007 7.447-.015 11.17 0 .297-.03.606-.125.887-.274.807-1.147 1.304-1.975 1.16-.893-.156-1.51-.881-1.511-1.817-.007-3.826-.02-7.656.008-11.483.007-1.014-.367-1.69-1.257-2.2-4.994-2.856-9.978-5.731-14.948-8.628-.893-.52-1.668-.539-2.57-.01a2562.973 2562.973 0 0 1-15.103 8.72c-.778.447-1.122 1.075-1.12 1.956.009 5.607.01 11.213-.001 16.82-.002.9.354 1.534 1.146 1.987A4368.128 4368.128 0 0 1 20.1 43.063c.708.41 1.39.42 2.092.001a42.46 42.46 0 0 1 1.684-.968c.895-.484 1.945-.198 2.444.643.494.827.278 1.916-.566 2.422-1.093.654-2.138 1.42-3.419 1.707-.174.035-.346.09-.519.134H20.46c-.779-.303-1.61-.515-2.328-.923-5.037-2.87-10.045-5.793-15.076-8.671-2.036-1.166-3.027-2.885-3.022-5.22.01-5.561.011-11.121 0-16.681-.006-2.336.985-4.056 3.02-5.222 4.588-2.624 9.16-5.275 13.738-7.917C17.96 1.694 19.089.93 20.459.694h1.357zm10.407 46.308c-.05-.03-.096-.068-.149-.088-1.357-.542-1.683-2.03-.652-3.068 2.028-2.044 4.068-4.071 6.103-6.105 1.321-1.319 2.64-2.644 3.965-3.96.807-.804 1.917-.839 2.655-.1.742.747.708 1.846-.103 2.657A2908.954 2908.954 0 0 1 34 46.36c-.268.269-.638.431-.961.642h-.815zm10.226 0c-.797-.341-1.372-.854-1.381-1.796a1.796 1.796 0 0 1 1.514-1.802c.86-.148 1.744.397 2.01 1.24a1.819 1.819 0 0 1-.928 2.169c-.132.064-.267.124-.4.189h-.815zM12.116 18.419v2.714c.197 0 .386-.008.573.001.975.056 1.979-.018 2.918.194 2.46.554 3.97 2.881 3.676 5.468-.264 2.328-2.356 4.221-4.763 4.275-1.417.03-2.835.02-4.253.005a1.774 1.774 0 0 1-1.779-1.786 1.778 1.778 0 0 1 1.794-1.82c1.297-.017 2.594-.005 3.891-.006.913-.002 1.54-.553 1.544-1.351.004-.797-.626-1.357-1.534-1.359-1.251-.003-2.503.002-3.755-.001-1.187-.007-1.934-.73-1.94-1.905-.011-2.051-.012-4.104 0-6.151.006-1.16.752-1.892 1.904-1.893 2.338-.006 4.676-.006 7.014-.002 1.107.003 1.915.756 1.932 1.789.017 1.034-.811 1.825-1.934 1.828-1.584.005-3.168 0-4.751 0h-.537zm10.848 4.493c0-.873-.007-1.747.001-2.619.027-2.889 2.097-5.187 4.92-5.474 2.736-.276 5.24 1.607 5.83 4.386.044.204.077.417.078.626.002 2.108.093 4.22-.032 6.322-.158 2.672-2.401 4.778-5.03 4.92-2.717.15-5.102-1.67-5.652-4.331a6.61 6.61 0 0 1-.11-1.21c-.017-.87-.006-1.745-.005-2.62zm7.236.028h.003c0-.828.01-1.655-.006-2.483a2.83 2.83 0 0 0-.122-.84 1.785 1.785 0 0 0-1.96-1.18c-.852.137-1.508.832-1.52 1.707-.022 1.865-.008 3.73-.002 5.597a1.799 1.799 0 0 0 2.02 1.71c.895-.115 1.552-.84 1.581-1.802.027-.903.006-1.807.006-2.71zm2.44 10.216a1.79 1.79 0 0 1 1.789 1.817 1.81 1.81 0 0 1-1.814 1.8 1.821 1.821 0 0 1-1.794-1.828 1.8 1.8 0 0 1 1.82-1.79z"/></g></g></svg>