<svg xmlns="http://www.w3.org/2000/svg" width="46" height="46" viewBox="0 0 46 46"><g><g><path fill="#f58f0b" d="M30.834.108c1.076.36 1.517 1.124 1.44 2.234-.03.431-.005.86-.005 1.352.619 0 1.21-.01 1.802.002 2.788.046 5.099 1.123 6.89 3.26 1.343 1.598 2.02 3.466 2.058 5.552.02 1.12.005 2.241.006 3.359 0 1.503-.659 2.169-2.146 2.169H3.585v.49c0 5.17-.002 10.337.001 15.502.002 3.166 2.356 5.513 5.525 5.519 2.823.003 5.645-.006 8.468.003 1.233.003 2.071 1.065 1.785 2.23-.186.754-.862 1.339-1.652 1.342-3.091.012-6.186.084-9.274-.022-4.24-.145-7.803-3.516-8.355-7.738-.014-.1-.055-.198-.083-.298V11.758c.028-.097.069-.195.083-.294.312-2.22 1.305-4.07 2.987-5.544 1.694-1.486 3.683-2.214 5.935-2.226.576-.003 1.152 0 1.751 0 0-.496.025-.924-.005-1.355-.076-1.11.364-1.873 1.44-2.23h.716c1.075.358 1.516 1.121 1.44 2.231-.03.44-.005.884-.005 1.322h14.341c0-.462.025-.892-.005-1.322-.076-1.11.363-1.873 1.44-2.232h.716zm8.558 14.32c.645-5.196-2.768-7.728-7.124-7.084 0 .536.003 1.072 0 1.608-.008 1.119-.772 1.923-1.815 1.91-1.02-.01-1.762-.813-1.77-1.909-.003-.548 0-1.096 0-1.644H14.341c0 .566.003 1.104 0 1.638-.008 1.119-.768 1.926-1.81 1.916-1.022-.01-1.767-.81-1.774-1.907-.004-.546 0-1.096 0-1.635-5.54-.641-7.732 3.117-7.1 7.106h35.735zm-7.034 31.574c-1.059-.24-2.148-.387-3.171-.732-5.407-1.827-8.917-7.346-8.328-13.012.608-5.842 4.958-10.386 10.765-11.24 6.644-.98 13.08 3.768 14.097 10.398.054.35.115.698.172 1.05v1.97c-.027.128-.062.258-.08.387-.735 5.126-3.519 8.634-8.36 10.456-.99.371-2.08.488-3.123.723h-1.972zm1.007-21.514c-4.933-.008-8.967 3.997-8.984 8.919-.017 4.955 3.997 9 8.942 9.007 4.931.01 8.966-3.995 8.984-8.92.019-4.954-3.996-8.997-8.942-9.006zm-22.61-1.067a1.797 1.797 0 0 1-1.803 1.782 1.797 1.797 0 0 1-1.78-1.803 1.792 1.792 0 0 1 3.582.021zm7.17-.003a1.797 1.797 0 0 1-1.798 1.785 1.796 1.796 0 0 1-1.784-1.799 1.792 1.792 0 0 1 3.582.014zm-7.17 7.172a1.798 1.798 0 0 1-1.8 1.783 1.795 1.795 0 0 1-1.783-1.799 1.792 1.792 0 0 1 3.582.015zm7.17.01a1.797 1.797 0 0 1-1.81 1.773 1.796 1.796 0 0 1-1.772-1.81 1.792 1.792 0 0 1 3.582.037zm17.212 1.058h1.66c1.126.006 1.928.758 1.923 1.802-.004 1.024-.8 1.78-1.897 1.784-1.135.005-2.27.006-3.404 0-1.102-.01-1.858-.761-1.866-1.859-.008-1.15-.007-2.3 0-3.45.007-1.06.766-1.852 1.773-1.86 1.028-.01 1.798.785 1.81 1.867.005.553 0 1.102 0 1.716z"/></g></g></svg>