<svg xmlns="http://www.w3.org/2000/svg" width="47" height="34" viewBox="0 0 47 34"><g><g><path fill="#f58f0b" d="M46.466 25.105c-.24.92-.52 1.82-1.13 2.58-1.085 1.355-2.49 2.073-4.224 2.128-.605.02-1.21.022-1.815-.003-.303-.014-.437.088-.561.37-.947 2.172-3.248 3.512-5.52 3.242-2.41-.287-4.339-2.037-4.799-4.355-.54-2.72 1.059-5.402 3.73-6.25a5.412 5.412 0 0 1 6.564 2.965c.153.344.327.432.668.416.543-.026 1.089.002 1.633-.007 1.033-.022 1.814-.782 1.819-1.81.012-2.418.019-4.834-.013-7.252-.005-.367-.154-.781-.36-1.093-2.363-3.578-4.751-7.138-7.131-10.705-.401-.6-.954-.89-1.68-.89-9.376.002-18.752 0-28.128.004-1.115 0-1.886.766-1.887 1.879-.004 5.994-.004 11.992 0 17.986.001 1.113.773 1.871 1.888 1.882.575.005 1.15-.012 1.724.006.257.01.36-.092.462-.315.98-2.118 2.649-3.29 4.984-3.295 2.356-.006 4.035 1.171 5.019 3.31.106.231.227.3.471.299 1.512-.011 3.025-.006 4.537-.003 1.15.001 1.961.749 1.966 1.802.005 1.053-.808 1.817-1.948 1.822-1.513.003-3.025.006-4.537-.006-.263-.002-.386.08-.5.325-.985 2.115-2.656 3.287-4.991 3.287-2.335-.002-4.008-1.17-4.993-3.284-.114-.244-.236-.322-.5-.33-.98-.026-1.99.065-2.932-.149-2.31-.522-3.703-2.032-4.2-4.353-.015-.07-.054-.137-.082-.203V5.53c.023-.039.061-.074.067-.114C.424 2.905 2.719.776 5.807.796 15.031.851 24.256.821 33.48.81c2.142-.003 3.78.861 4.96 2.642 2.003 3.02 4.019 6.03 6.034 9.041.82 1.227 1.725 2.406 1.992 3.91v8.702zM12.71 26.194a1.817 1.817 0 0 0-1.82 1.803 1.82 1.82 0 0 0 1.808 1.82 1.822 1.822 0 0 0 1.82-1.806 1.818 1.818 0 0 0-1.808-1.817zm21.045 0a1.817 1.817 0 0 0-1.81 1.814 1.82 1.82 0 0 0 1.818 1.81A1.823 1.823 0 0 0 35.574 28a1.818 1.818 0 0 0-1.818-1.806zm1.64-7.174c-1.005-.086-2.035-.064-3.01-.282-2.355-.531-4.043-2.733-4.068-5.15a232.102 232.102 0 0 1-.001-3.626c.006-1.098.786-1.902 1.825-1.894 1.022.004 1.793.8 1.801 1.874.009 1.148-.001 2.295.003 3.442.005 1.172.76 1.928 1.93 1.932 1.134.006 2.268-.003 3.401.002 1.113.006 1.919.761 1.927 1.794.008 1.056-.805 1.824-1.942 1.828-.62.003-1.24.002-1.86.002l-.006.078zm-10.711-3.695c0 1.81.008 3.62-.005 5.431a1.8 1.8 0 0 1-1.638 1.804 1.809 1.809 0 0 1-1.939-1.418 2.419 2.419 0 0 1-.046-.538c-.003-3.515-.003-7.03-.002-10.548.001-1.178.754-1.995 1.823-1.988 1.07.003 1.805.816 1.806 2.004.003 1.75.001 3.502 0 5.253z"/></g></g></svg>