<svg xmlns="http://www.w3.org/2000/svg" width="50" height="48" viewBox="0 0 50 48"><g><g><path fill="#f58f0b" d="M0 2.287C.39 1.125 1.214.669 2.417.73 3.561.79 4.723.67 5.85.822c2.973.41 5.002 2.826 5.004 5.834.004 7.586.001 15.17.001 22.752 0 1.606.72 2.32 2.341 2.32 11.337 0 22.673.007 34.01-.014 1.202-.002 2.027.399 2.418 1.561v.775c-.394 1.16-1.216 1.592-2.42 1.563-1.936-.05-3.874-.014-5.812-.014h-.638c3.54 1.076 5.407 3.601 4.941 6.556-.476 3.024-2.908 5.11-5.902 5.061-2.873-.041-5.286-2.244-5.645-5.191-.284-2.341 1.017-5.53 4.943-6.4H17.594c3.627 1.176 5.36 3.666 4.791 6.859-.5 2.807-3.065 4.834-5.992 4.73-2.816-.096-5.199-2.34-5.511-5.23-.27-2.498 1.208-5.554 4.835-6.385-.97 0-1.94.023-2.909-.004-2.452-.073-4.228-1.222-5.307-3.42-.388-.793-.526-1.65-.526-2.535.006-7.585.003-15.166.003-22.75 0-1.545-.735-2.28-2.283-2.28-.76 0-1.52-.034-2.277.007C1.216 4.687.392 4.224 0 3.06v-.773zm14.734 39.082a1.944 1.944 0 0 0 1.895 1.978 1.947 1.947 0 0 0 1.978-1.896 1.947 1.947 0 0 0-1.896-1.977 1.945 1.945 0 0 0-1.977 1.895zm25.18 1.978a1.944 1.944 0 0 0 1.954-1.92 1.945 1.945 0 0 0-1.92-1.953 1.945 1.945 0 0 0-1.953 1.918 1.943 1.943 0 0 0 1.919 1.955zm-11.61-3.873c.646 0 1.291-.01 1.936.001 1.1.022 1.938.87 1.936 1.94-.002 1.067-.842 1.916-1.945 1.929-1.29.015-2.58.015-3.87 0-1.098-.014-1.938-.87-1.935-1.938.002-1.068.842-1.91 1.944-1.93.645-.012 1.29-.002 1.935-.002zm-13.48-25.175c0-1.724-.13-3.46.026-5.172.38-4.186 4.1-7.843 8.292-8.294a15.855 15.855 0 0 1 1.641-.09C27.19.732 29.596.735 32.003.74c4.9.006 8.814 3.235 9.718 8.043.106.567.139 1.153.142 1.729.015 2.519.012 5.036.006 7.555-.014 5.505-4.29 9.77-9.809 9.785-2.503.007-5.006.006-7.51 0-5.543-.014-9.807-4.283-9.818-9.826-.002-1.244 0-2.484 0-3.727h.092zm13.478 9.68c1.275 0 2.55.004 3.826-.002 3.295-.018 5.853-2.577 5.863-5.871.008-2.55.01-5.1 0-7.647-.012-3.266-2.577-5.833-5.841-5.847a919.43 919.43 0 0 0-7.7 0c-3.264.014-5.829 2.584-5.84 5.849-.008 2.547-.007 5.096 0 7.646.01 3.293 2.57 5.853 5.866 5.87 1.275.006 2.55.002 3.826.002zm-.028-7.748c-3.136-.009-5.778-2.618-5.787-5.713-.004-1.14.81-2.013 1.897-2.033 1.075-.02 1.914.79 1.978 1.904.065 1.151.85 1.959 1.917 1.968 1.089.012 1.894-.797 1.961-1.971.063-1.112.908-1.922 1.982-1.9 1.069.022 1.886.884 1.893 1.989.02 3.133-2.65 5.766-5.84 5.756z"/></g></g></svg>