<svg xmlns="http://www.w3.org/2000/svg" width="27" height="31" viewBox="0 0 27 31"><g><g><path fill="#fff" d="M13.732.556c.597.126 1.206.213 1.79.387 1.314.385 2.462 1.11 3.611 1.83a69.49 69.49 0 0 0 3.074 1.848c.434.242.932.377 1.408.537 1.478.502 2.498 1.827 2.527 3.3.014.72-.47 1.262-1.15 1.288-.66.023-1.189-.485-1.222-1.188-.025-.54-.309-.94-.79-1.08-2.102-.613-3.842-1.881-5.653-3.028-.989-.626-2.013-1.177-3.18-1.408-1.371-.274-2.671-.033-3.878.614-1.044.558-2.045 1.2-3.046 1.836-1.231.782-2.484 1.505-3.896 1.918-.655.195-.938.634-.938 1.312 0 2.18-.005 4.36 0 6.541.016 5.96 3.792 11.152 9.452 12.997.347.114.702.206 1.058.286.129.03.28.03.407-.006 5.548-1.53 8.956-5.11 10.222-10.729.29-1.285.249-2.597.241-3.905 0-.149-.008-.3.014-.447a1.191 1.191 0 0 1 1.237-1.01c.593.031 1.098.508 1.118 1.11.076 2.356-.045 4.694-.87 6.939-2.016 5.474-5.864 8.92-11.498 10.38-.151.038-.302.083-.454.122h-.475c-.074-.023-.147-.053-.223-.07-1.29-.284-2.543-.685-3.707-1.303C3.135 26.546.169 21.713.02 15.167-.03 13.02.012 10.87.013 8.722c.001-1.724.98-3.057 2.616-3.592.46-.15.934-.289 1.35-.522a74.186 74.186 0 0 0 3.072-1.852c1.15-.718 2.299-1.44 3.614-1.82.575-.169 1.173-.255 1.76-.38h1.307zm-.656 9.04c.781 0 1.563-.005 2.344 0 2.02.007 3.59 1.578 3.596 3.602.006 1.563.006 3.13 0 4.695-.007 2.004-1.575 3.584-3.575 3.592-1.573.009-3.146.007-4.719 0a3.566 3.566 0 0 1-3.581-3.586c-.006-1.575-.006-3.15 0-4.725a3.568 3.568 0 0 1 3.56-3.578c.792-.006 1.583 0 2.375 0zm-1.185 2.377c-.39 0-.743-.001-1.097 0-.08 0-.16-.001-.237.01a1.175 1.175 0 0 0-1.038 1.152c-.009 1.603-.01 3.209 0 4.81a1.161 1.161 0 0 0 1.157 1.16c1.602.01 3.204.01 4.806 0a1.161 1.161 0 0 0 1.155-1.16c.011-1.603.01-3.207 0-4.81-.002-.544-.36-1.03-.895-1.105-.478-.072-.974-.015-1.476-.015 0 .38.005.754-.001 1.128-.012.694-.533 1.216-1.202 1.207-.654-.006-1.16-.528-1.17-1.207-.006-.374-.002-.75-.002-1.17z"/></g></g></svg>