<svg xmlns="http://www.w3.org/2000/svg" width="22" height="30" viewBox="0 0 22 30"><g><g><path fill="#fff" d="M5.328 30c-.441-.109-.894-.182-1.322-.33A5.816 5.816 0 0 1 .07 24.175a767.82 767.82 0 0 1 0-7.078c.017-3.207 2.601-5.803 5.802-5.818a1074.1 1074.1 0 0 1 9.437 0c3.202.015 5.783 2.605 5.801 5.818.014 2.359.012 4.717 0 7.078a5.842 5.842 0 0 1-5.096 5.775c-.055.006-.108.033-.162.05H5.328zm5.268-16.383c-1.539 0-3.078-.005-4.616 0-2.028.004-3.571 1.545-3.574 3.572-.003 2.298-.003 4.6 0 6.9.003 2.023 1.547 3.567 3.575 3.57 3.068.005 6.136.005 9.204 0 2.047-.003 3.585-1.54 3.588-3.587.003-2.289.003-4.582 0-6.87-.003-2.047-1.542-3.582-3.59-3.585-1.53-.004-3.058 0-4.587 0zM11.174.04c.34.076.684.136 1.019.232a5.838 5.838 0 0 1 4.24 5.571c.007.622.006 1.246.001 1.871-.005.708-.51 1.227-1.18 1.22-.656-.006-1.145-.523-1.158-1.215-.014-.8.039-1.607-.064-2.395-.233-1.78-1.892-3.06-3.705-2.935-1.776.123-3.218 1.646-3.243 3.431-.008.622 0 1.245-.003 1.87-.004.72-.489 1.237-1.156 1.245-.68.006-1.193-.52-1.177-1.25.02-.973-.027-1.962.127-2.917C5.266 2.337 7.365.401 9.813.094c.065-.009.128-.035.192-.054h1.17zM9.421 23.584c.152-.579-.116-.85-.624-1.13-1.42-.781-2.038-2.492-1.553-4.033a3.525 3.525 0 0 1 3.629-2.456 3.521 3.521 0 0 1 3.176 2.952 3.49 3.49 0 0 1-2.057 3.761c-.182.078-.247.166-.238.36.016.37.01.742.003 1.112-.015.665-.527 1.173-1.174 1.17-.645-.003-1.148-.514-1.162-1.18-.004-.188 0-.372 0-.556zm1.167-2.948a1.173 1.173 0 0 0 1.17-1.166c0-.643-.525-1.172-1.167-1.172a1.172 1.172 0 0 0-1.17 1.167c0 .643.525 1.171 1.167 1.171z"/></g></g></svg>