<svg xmlns="http://www.w3.org/2000/svg" width="31" height="31" viewBox="0 0 31 31"><g><g><path fill="#fff" d="M0 27.947V10.921c.018-.053.044-.108.051-.163C.462 7.79 2.904 5.652 5.9 5.638c.977-.004 1.955 0 2.932 0h.327c0-.428-.009-.818.002-1.208.03-1.146.504-2.067 1.403-2.777.488-.385 1.063-.555 1.648-.713h5.636c.024.015.047.04.073.044 1.576.213 3.066 1.666 2.981 3.709-.013.308-.002.617-.002.945 1.132 0 2.225-.006 3.318 0a5.855 5.855 0 0 1 5.617 4.29c.092.326.15.663.224.993v2.701c-.238.703-.737.958-1.466.947-1.75-.026-3.502-.009-5.254-.009h-.325c0 .395.002.745 0 1.096-.006.734-.506 1.262-1.189 1.256-.668-.01-1.155-.536-1.159-1.254-.002-.358 0-.717 0-1.075H9.393c0 .366.002.706 0 1.047-.003.746-.482 1.273-1.162 1.282-.692.006-1.183-.528-1.186-1.288v-1.04H2.348v12.733c0 .874.465 1.335 1.342 1.335h22.691c.858 0 1.329-.468 1.33-1.32v-5.898c0-1.116-.005-2.232.002-3.35.004-.584.403-1.05.97-1.155.536-.105 1.078.202 1.298.732l.078.19v10.096c-.02.065-.046.126-.06.188-.296 1.308-1.068 2.206-2.327 2.674-.215.08-.443.127-.666.193H3.053c-.063-.023-.124-.049-.188-.063-1.035-.22-1.855-.77-2.372-1.694C.269 28.844.16 28.38 0 27.947zm2.37-15.755h25.34c0-.264.003-.507 0-.751-.03-1.877-1.58-3.446-3.455-3.45C18.102 7.98 11.95 7.98 5.797 8c-.463.002-.957.134-1.383.323-1.486.663-2.223 2.097-2.044 3.87zm16.182-6.567V4.578c0-.08.002-.158-.006-.237-.061-.575-.536-1.042-1.12-1.047-1.594-.012-3.189-.01-4.783 0-.574.003-1.068.442-1.12 1.009-.038.433-.007.873-.007 1.322h7.036zm-3.541 18.331c-1.057 0-2.113.006-3.17-.006-.214-.003-.317.055-.409.261-.991 2.23-3.872 2.794-5.643 1.111-.49-.465-.537-1.17-.11-1.654.437-.5 1.153-.535 1.68-.083.57.488 1.244.493 1.706.009a1.171 1.171 0 0 0 .005-1.62 1.153 1.153 0 0 0-1.616-.075c-.31.269-.64.449-1.062.38-.476-.077-.806-.346-.947-.81-.14-.46-.03-.868.318-1.21 1.75-1.706 4.672-1.152 5.667 1.088.09.2.185.268.405.267 2.123-.01 4.245-.01 6.368-.002.221.002.332-.05.43-.272.983-2.213 3.871-2.78 5.626-1.114.504.479.551 1.191.111 1.68-.441.495-1.145.518-1.68.06-.457-.39-.947-.472-1.405-.216-.42.235-.637.605-.614 1.086.022.468.26.816.689 1.011.442.201.869.14 1.233-.175.302-.26.621-.451 1.03-.397.488.064.836.331.987.806.15.47.033.885-.324 1.228-1.745 1.693-4.656 1.142-5.65-1.08-.097-.213-.197-.282-.427-.279-1.066.012-2.132.006-3.198.006z"/></g></g></svg>