<svg xmlns="http://www.w3.org/2000/svg" width="23" height="22" viewBox="0 0 23 22"><g><g><path fill="#f58f0b" d="M22.062 4.204l-10.487 10.46a.82.82 0 0 1-.58.24h-.019a.82.82 0 0 1-.588-.265l-4.145-4.502a.824.824 0 1 1 1.212-1.115l3.564 3.87 9.88-9.855a.824.824 0 0 1 1.163 1.167zm.627 6.774c0 6.026-4.902 10.928-10.926 10.928-6.025 0-10.927-4.902-10.927-10.928C.836 4.954 5.738.053 11.763.053a.823.823 0 1 1 0 1.647c-5.117 0-9.28 4.161-9.28 9.278 0 5.118 4.163 9.28 9.28 9.28 5.116 0 9.279-4.162 9.279-9.28a.824.824 0 0 1 1.647 0z"/></g></g></svg>