<svg xmlns="http://www.w3.org/2000/svg" width="20" height="24" viewBox="0 0 20 24"><g><g><path fill="#f58f0b" d="M10.394.56c.436.077.878.128 1.308.23 3.175.751 5.605 3.46 6.048 6.695.25 1.822-.17 3.505-.978 5.115-.934 1.867-2.233 3.461-3.686 4.937-.457.465-.933.913-1.419 1.352-1.116 1-2.585.996-3.704-.005-1.74-1.55-3.317-3.246-4.537-5.25-.706-1.16-1.265-2.382-1.494-3.734-.387-2.29.141-4.366 1.543-6.202 1.28-1.676 2.988-2.67 5.063-3.035.232-.04.466-.07.7-.103h1.156zM3.568 8.552c.028.285.043.576.086.86.183 1.218.687 2.313 1.328 3.348 1.146 1.85 2.622 3.423 4.24 4.863.372.331.848.317 1.228-.037.57-.533 1.14-1.064 1.681-1.621 1.18-1.224 2.231-2.545 3.005-4.068.628-1.23 1.018-2.522.878-3.936-.338-3.412-3.392-5.92-6.814-5.583-3.17.315-5.603 2.987-5.632 6.174zm-1.23 14.82c-.427-.116-.848-.243-1.213-.515-1.032-.761-1.4-2.12-.85-3.277.504-1.058 1.039-2.099 1.568-3.146.234-.459.746-.627 1.19-.41.447.223.623.744.392 1.216-.498 1.012-1.008 2.016-1.506 3.028-.279.564.004 1.172.596 1.301.086.019.176.022.265.022h14.063c.795 0 1.2-.66.845-1.379-.49-.988-.99-1.974-1.478-2.962-.246-.5-.053-1.044.432-1.253.438-.186.916-.01 1.146.437.359.7.706 1.408 1.057 2.11.163.324.33.644.486.973a2.676 2.676 0 0 1-1.918 3.813c-.041.01-.08.03-.12.043H2.338zM12.487 8.585a2.682 2.682 0 0 1-2.68 2.673 2.685 2.685 0 0 1-2.66-2.688 2.683 2.683 0 0 1 2.668-2.662 2.68 2.68 0 0 1 2.672 2.677zm-2.663.887a.89.89 0 0 0-.016-1.78.89.89 0 0 0 .016 1.78z"/></g></g></svg>