<svg xmlns="http://www.w3.org/2000/svg" width="21" height="17" viewBox="0 0 21 17"><g><g><path fill="#f58f0b" d="M0 13.09V4.3c.012-.037.03-.072.035-.112C.313 2.186 1.971.714 3.982.705c4.17-.008 8.34-.008 12.51 0a3.985 3.985 0 0 1 3.843 2.958c.057.209.093.422.139.637v8.79c-.013.037-.03.075-.036.114-.268 1.989-1.928 3.475-3.926 3.481-4.183.01-8.366.01-12.55 0a3.97 3.97 0 0 1-3.81-2.912C.09 13.547.05 13.319 0 13.09zm10.223 1.999h6.156c1.454 0 2.494-1.037 2.495-2.492V4.788c0-1.452-1.041-2.483-2.497-2.483-4.091-.002-8.182-.002-12.273-.002-1.469.002-2.504 1.033-2.504 2.5v7.788c0 1.464 1.038 2.498 2.507 2.498h6.116zm3.51-6.408c.598.623 1.183 1.236 1.768 1.844.513.534 1.032 1.062 1.536 1.6.447.48.228 1.209-.397 1.347-.325.072-.582-.057-.805-.287-1.022-1.073-2.048-2.137-3.072-3.204-.045-.047-.084-.1-.107-.132-.22.208-.428.383-.618.578-1.047 1.07-2.554 1.07-3.6.003-.19-.198-.398-.373-.559-.522-.226.202-.486.411-.718.65-.85.874-1.691 1.758-2.534 2.633-.218.23-.474.349-.79.281a.755.755 0 0 1-.601-.552c-.095-.312-.009-.578.21-.808.562-.583 1.126-1.173 1.69-1.756.53-.554 1.06-1.102 1.605-1.673-.057-.062-.107-.121-.16-.177C5.546 7.441 4.512 6.373 3.476 5.31c-.214-.22-.326-.468-.257-.776a.765.765 0 0 1 .556-.6.758.758 0 0 1 .805.223c.583.594 1.16 1.195 1.74 1.789 1.091 1.123 2.181 2.244 3.272 3.37.417.428.871.43 1.286.005 1.648-1.699 3.295-3.395 4.94-5.096.228-.238.484-.38.817-.307.626.135.85.867.406 1.345-.4.428-.814.845-1.223 1.26-.654.677-1.309 1.35-1.963 2.023l-.123.135z"/></g></g></svg>