<svg xmlns="http://www.w3.org/2000/svg" width="132" height="49" viewBox="0 0 132 49"><g><g opacity=".1"><path fill="#131313" d="M91.868.932c.504 0 .441.188-.126.438-.568.25-1.261.625-1.514.813-.252.188-.756.628-1.134 1.004-.379.373-.883 1.313-1.198 2.131-.316.809-.505 2.754-.568 4.317-.063 1.564-.063 2.942-.063 3.064 0 .036-.069.052-.191.052-.317 0-.991-.1-1.764-.24-.536-.121-1.639-.185-2.979-.185s-2.916.064-4.398.185l-.063-.057a76.568 76.568 0 0 1-5.858.245c-.812 0-1.477-.017-1.897-.062-1.261-.126-2.838-.247-3.405-.247h-1.198c-.064 0-.126.437-.126.94 0 .495.189 2.253.378 3.817.252 1.567 1.072 3.942 1.829 5.135.756 1.19 2.774 2.565 4.413 3.006 1.64.374 3.531.753 4.225.753h2.396c.693 0 1.197.057 1.197.183v3.197c0 1.69-.062 3.566-.188 4.253-.126.692-.757 1.377-1.388 1.634-.63.185-3.657.372-6.62.372h-5.612c-.063 0-.189 1.751-.252 3.882 0 2.126.315 5.072.757 6.572.44 1.502.756 2.69.693 2.69H54.288c-1.008 0-1.765-.939-1.765-2.003v-5.7-8.949-13.835-9.705V2.62c0-.935 1.135-1.687 2.585-1.687H91.868zm12.6 30.494c.819 0 2.643 0 4.027-.124h3.775c.692 0 1.007-.748.755-1.62-.251-.873-1.132-3.93-2.013-6.737a485.497 485.497 0 0 1-2.14-7.046c-.161-.546-.373-.827-.584-.827-.198 0-.395.248-.548.763a500.893 500.893 0 0 1-2.139 7.047l-.063.126c-.88 2.867-1.824 5.922-2.076 6.799-.252.875.189 1.62 1.007 1.62 0 0-.819 0 0 0zM112.523.932c1.95 0 4.341 2.31 5.285 5.112l11.828 34.801c.943 2.805 1.95 5.735 2.202 6.55.251.811-.315 1.43-1.195 1.43h-10.634c-.754 0-1.51-.56-1.697-1.18-.19-.629-.441-1.375-.504-1.691-.064-.309-.315-1.18-.567-1.93-.188-.813-1.005-1.435-1.76-1.435h-14.346c-.88 0-1.699.502-1.887 1.122-.19.625-.44 1.499-.567 1.934-.125.377-.377 1.313-.566 1.935-.252.684-.944 1.183-1.573 1.183H84.335c-.125 0-.062-.436.19-1.059.25-.62.503-1.124.503-1.124.063-.06.314-1.185.566-2.556.251-1.373.566-3.553.629-4.861.063-1.313 1.133-3 2.39-3.867 1.26-.875 3.461-2.867 4.845-4.556 1.384-1.684 3.21-5.113 4.027-7.732.818-2.554 1.384-6.734 1.321-9.293-.063-2.555 0-5.734.126-7.233.126-1.497.315-2.994.315-3.302 0-.315.188-.877.377-1.192.189-.308.692-.68 1.007-.81.314-.123.692-.246.755-.246h11.136zm-68.331 0H2.838C1.693.932.93 1.68.93 2.613v8.669c0 .94.763 1.685 1.717 1.685h11.834c.954 0 1.717.748 1.717 1.686v32.494c0 .932.764 1.678 1.718 1.678h11.006c.954 0 1.718-.746 1.718-1.678V14.59c0-.938.763-1.687 1.718-1.687H44.19c.954 0 1.717-.746 1.717-1.68v-8.61c0-.934-.763-1.682-1.717-1.682m49.342 2.66a1.33 1.33 0 0 0-1.323 1.331c0 .736.592 1.333 1.323 1.333.73 0 1.323-.597 1.323-1.333 0-.729-.593-1.33-1.323-1.33"/></g></g></svg>