<svg xmlns="http://www.w3.org/2000/svg" width="31" height="31" viewBox="0 0 31 31"><g><g><path fill="#f58f0b" d="M30.245 7.194V24.56c-.017.057-.042.11-.05.164-.447 2.977-2.099 4.957-4.93 5.944-.468.166-.971.224-1.459.333H6.44c-.065-.018-.128-.046-.194-.054-2.79-.325-5.175-2.335-5.95-5.04-.127-.44-.198-.896-.295-1.347V7.194c.018-.066.043-.13.054-.198.434-2.859 2.003-4.81 4.704-5.832C5.294.963 5.878.886 6.44.753h17.367c.065.02.13.046.195.055a7.072 7.072 0 0 1 5.957 5.066c.123.433.193.88.287 1.32zM15.123 28.639c2.668 0 5.336.004 8.004-.002 2.655-.008 4.75-2.09 4.753-4.742.007-5.345.007-10.691 0-16.038-.003-2.648-2.1-4.734-4.753-4.737-5.337-.005-10.673-.005-16.009 0-2.667.003-4.751 2.097-4.754 4.766-.004 5.328-.003 10.653.003 15.98 0 .312.024.634.085.94.46 2.274 2.365 3.828 4.696 3.831 2.658.005 5.317.002 7.975.002zm1.181-6.5h1.656c.767.002 1.3.491 1.297 1.19-.004.683-.533 1.173-1.281 1.173-1.91.001-3.82.006-5.729 0-.89-.004-1.445-.728-1.199-1.545.149-.492.577-.803 1.14-.816.285-.006.57-.002.856-.002h.897v-.324-6.201c0-.863-.47-1.33-1.332-1.331-.206-.002-.416.012-.618-.02a1.145 1.145 0 0 1-.999-1.17c.003-.59.387-1.082.984-1.147 1.426-.156 2.879.157 3.843 1.741.34.557.487 1.174.486 1.83-.003 2.126 0 4.252 0 6.377v.245zm-1.18-11.933c-.803 0-1.474-.66-1.477-1.453-.003-.852.648-1.502 1.49-1.495.829.008 1.464.656 1.461 1.495-.002.793-.67 1.453-1.475 1.453z"/></g></g></svg>