<svg xmlns="http://www.w3.org/2000/svg" width="21" height="17" viewBox="0 0 21 17"><g><g><path fill="#131313" d="M0 13.092V4.3c.012-.039.03-.074.035-.111C.313 2.183 1.971.711 3.982.706c4.17-.005 8.34-.005 12.51 0a3.986 3.986 0 0 1 3.843 2.955c.057.21.093.425.139.639v8.792c-.012.034-.03.074-.036.114-.268 1.986-1.928 3.472-3.926 3.477-4.183.01-8.366.01-12.55 0a3.974 3.974 0 0 1-3.81-2.912C.09 13.548.05 13.315 0 13.092zm10.223 1.999c2.052 0 4.104.003 6.157 0 1.453-.003 2.494-1.04 2.494-2.488V4.79c0-1.45-1.04-2.487-2.497-2.487-4.091-.002-8.182-.002-12.273-.002C2.635 2.304 1.6 3.34 1.6 4.802v7.79c0 1.466 1.038 2.499 2.507 2.499h6.116zm3.51-6.41c.598.623 1.183 1.235 1.769 1.843.512.533 1.03 1.062 1.535 1.604.447.478.228 1.205-.397 1.345-.325.074-.582-.057-.805-.29-1.022-1.069-2.048-2.134-3.071-3.2-.046-.05-.084-.104-.108-.134-.22.207-.428.382-.618.578-1.047 1.075-2.554 1.075-3.6.002-.189-.195-.398-.37-.559-.522-.226.206-.486.413-.718.65-.85.874-1.691 1.76-2.534 2.64-.218.228-.474.344-.79.276a.766.766 0 0 1-.601-.553c-.095-.31-.009-.578.21-.806.563-.584 1.126-1.174 1.69-1.759L6.74 8.684c-.057-.063-.107-.122-.16-.174-1.035-1.07-2.069-2.135-3.105-3.199-.214-.218-.326-.471-.257-.777a.76.76 0 0 1 .556-.598c.311-.09.583-.008.805.22.583.593 1.16 1.192 1.74 1.79l3.272 3.367c.417.428.871.433 1.286.008 1.648-1.7 3.295-3.396 4.94-5.095.228-.234.484-.38.817-.307.626.132.85.869.406 1.345-.4.428-.814.842-1.223 1.264l-1.963 2.019c-.037.038-.072.078-.123.134z"/></g></g></svg>