<svg xmlns="http://www.w3.org/2000/svg" width="21" height="17" viewBox="0 0 21 17"><g><g><path fill="#fff" d="M0 13.092v-8.79c.012-.039.03-.075.035-.113C.313 2.186 1.971.71 3.982.705c4.17-.006 8.34-.006 12.51 0a3.988 3.988 0 0 1 3.843 2.957c.057.21.093.427.139.64v8.79c-.013.037-.03.074-.036.114-.268 1.988-1.928 3.474-3.926 3.479-4.183.012-8.366.01-12.55 0a3.974 3.974 0 0 1-3.81-2.913c-.062-.226-.102-.455-.152-.68zm10.223 1.997c2.052 0 4.104.004 6.156 0 1.454 0 2.494-1.035 2.495-2.489V4.79c0-1.45-1.041-2.485-2.497-2.485-4.091-.003-8.182-.003-12.273-.003-1.469.003-2.504 1.036-2.504 2.5v7.79c0 1.466 1.038 2.497 2.507 2.497h6.116zm3.51-6.408l1.768 1.844c.513.535 1.032 1.063 1.536 1.603.447.477.228 1.203-.397 1.345-.325.07-.582-.055-.805-.289-1.022-1.068-2.048-2.135-3.072-3.2-.045-.048-.084-.103-.107-.132-.22.205-.428.379-.618.575-1.047 1.072-2.554 1.072-3.6.002-.19-.196-.398-.372-.559-.521-.226.203-.486.414-.718.651-.85.874-1.691 1.758-2.534 2.636-.218.229-.474.345-.79.278a.759.759 0 0 1-.601-.551c-.095-.311-.009-.577.21-.806l1.69-1.76c.53-.553 1.06-1.105 1.605-1.67-.057-.063-.107-.12-.16-.174-1.035-1.066-2.069-2.136-3.105-3.2-.214-.218-.326-.472-.257-.777a.763.763 0 0 1 .556-.598c.311-.092.583-.01.805.219.583.594 1.16 1.193 1.74 1.788l3.272 3.375c.417.427.871.428 1.286.003 1.648-1.698 3.295-3.395 4.94-5.095.228-.234.484-.378.817-.308.626.132.85.868.406 1.345-.4.43-.814.843-1.223 1.264-.654.672-1.309 1.347-1.963 2.022-.037.037-.072.078-.123.13z"/></g></g></svg>