<svg xmlns="http://www.w3.org/2000/svg" width="24" height="28" viewBox="0 0 24 28"><g><g><path fill="#f58f0b" d="M12.507.279c.524.092 1.054.153 1.57.276 3.81.903 6.726 4.15 7.257 8.031.3 2.188-.205 4.208-1.174 6.14-1.12 2.24-2.679 4.155-4.422 5.926-.55.557-1.12 1.096-1.703 1.621-1.34 1.2-3.102 1.197-4.445-.005-2.088-1.863-3.98-3.899-5.444-6.303-.847-1.386-1.518-2.856-1.793-4.479-.465-2.75.169-5.24 1.852-7.442C5.74 2.032 7.79.84 10.28.401c.278-.047.559-.084.839-.122h1.388zm-8.19 9.59c.033.343.05.69.102 1.032.22 1.459.825 2.774 1.593 4.016 1.376 2.223 3.148 4.108 5.09 5.835.445.399 1.016.382 1.472-.043a54.023 54.023 0 0 0 2.018-1.945c1.415-1.466 2.677-3.055 3.606-4.882.754-1.478 1.221-3.028 1.053-4.723-.406-4.097-4.07-7.104-8.176-6.699-3.804.378-6.724 3.586-6.758 7.408zM2.84 27.657c-.513-.144-1.018-.296-1.457-.622C.146 26.12-.296 24.49.365 23.105c.605-1.271 1.246-2.522 1.881-3.775.281-.554.895-.755 1.427-.492.537.265.749.89.47 1.456-.596 1.213-1.209 2.421-1.806 3.63-.334.68.004 1.411.715 1.568.103.022.212.025.318.025h16.876c.954 0 1.441-.794 1.014-1.654-.589-1.19-1.187-2.373-1.774-3.561-.295-.596-.063-1.248.519-1.498.525-.224 1.1-.014 1.375.526.43.838.847 1.687 1.269 2.527.195.391.395.775.583 1.167.924 1.946-.191 4.161-2.302 4.577-.05.012-.097.039-.145.057H2.841zM15.017 9.905a3.22 3.22 0 0 1-3.215 3.208c-1.76-.004-3.2-1.458-3.193-3.225a3.22 3.22 0 0 1 3.202-3.194 3.217 3.217 0 0 1 3.206 3.211zm-3.195 1.068a1.069 1.069 0 1 0-.02-2.138 1.07 1.07 0 0 0-1.056 1.078c.004.586.49 1.064 1.076 1.06z"/></g></g></svg>