<svg xmlns="http://www.w3.org/2000/svg" width="29" height="28" viewBox="0 0 29 28"><g><g><path fill="#fff" d="M3.3 27.999c-.426-.16-.887-.258-1.272-.485-.986-.584-1.516-1.49-1.53-2.634a281.873 281.873 0 0 1-.004-6.518 3.163 3.163 0 0 1 3.132-3.123c2.163-.02 4.326-.02 6.49 0a3.168 3.168 0 0 1 3.133 3.15c.019 2.146.016 4.292 0 6.435-.01 1.581-1.129 2.86-2.685 3.129-.043.007-.082.032-.123.046H3.3zm3.598-10.603c-1.01 0-2.02 0-3.029.002-.813 0-1.218.4-1.218 1.203v6.03c0 .795.403 1.205 1.191 1.205H9.9c.777 0 1.19-.41 1.19-1.179.002-2.028.002-4.054 0-6.083 0-.768-.413-1.176-1.19-1.176-1-.002-2 0-3.001-.002zm21.288-7.195c-.122.565-.294 1.115-.66 1.577-.633.804-1.459 1.27-2.482 1.28-2.164.023-4.328.028-6.49 0-1.69-.02-3.103-1.426-3.125-3.115a250.585 250.585 0 0 1 0-6.519C15.45 1.737 16.864.331 18.553.311a277.24 277.24 0 0 1 6.49-.002c1.53.017 2.824 1.167 3.092 2.68.01.06.034.119.051.18v7.032zM17.582 6.684c0 1.01-.002 2.022.001 3.03.002.748.442 1.189 1.197 1.192h6.031c.773-.003 1.21-.44 1.21-1.207.002-2.009.002-4.02 0-6.03 0-.77-.437-1.203-1.21-1.203h-6.004c-.79 0-1.223.43-1.224 1.217-.002 1.001 0 2.002 0 3.001zM18.287 28c-.576-.121-1.128-.298-1.598-.676-.791-.63-1.249-1.449-1.26-2.462a286.407 286.407 0 0 1 0-6.487c.02-1.7 1.431-3.11 3.132-3.132 2.162-.026 4.325-.023 6.487 0 1.527.016 2.82 1.167 3.088 2.68.01.059.034.119.051.179v7.032c-.017.058-.04.115-.051.18-.263 1.277-1.015 2.12-2.248 2.541-.185.063-.379.099-.568.145h-7.033zm3.503-2.163c1.018 0 2.037.004 3.056 0 .734-.003 1.175-.445 1.176-1.184.003-2.02.002-4.037 0-6.059 0-.753-.438-1.195-1.19-1.195-2.019-.003-4.038-.003-6.057 0-.752 0-1.19.442-1.19 1.194-.003 2.012-.003 4.022 0 6.031 0 .774.434 1.211 1.203 1.213h3.002zM6.843 13.069c-1.018 0-2.037.001-3.056-.002-1.905-.006-3.295-1.389-3.3-3.292-.004-2.054-.003-4.111 0-6.167C.492 1.688 1.88.303 3.802.302c2.046-.003 4.093-.003 6.14 0 1.922.001 3.31 1.386 3.313 3.306.003 2.046.003 4.094 0 6.139-.003 1.937-1.387 3.316-3.327 3.32-1.028.002-2.056.002-3.084.002zm.02-2.163h3.055c.756-.003 1.171-.418 1.172-1.171.002-2.037.002-4.073 0-6.111 0-.74-.42-1.156-1.156-1.158h-6.11c-.757 0-1.172.413-1.173 1.168a4502.3 4502.3 0 0 0 0 6.084c0 .772.411 1.185 1.183 1.188h3.028z"/></g></g></svg>