<svg xmlns="http://www.w3.org/2000/svg" width="36" height="41" viewBox="0 0 36 41"><g><g><path fill="#f58f0b" d="M17.434 40.725c-1.338-.227-2.348-1.05-3.387-1.83-3.755-2.829-7.525-5.637-11.28-8.464-2.156-1.623-2.547-4.538-.92-6.65.842-1.092 1.953-1.65 3.698-1.836v-.448V7.164c0-3.33 2.116-5.823 5.414-6.387.049-.008.093-.04.14-.06h11.966c.059.026.116.055.176.08.76.29 1.195 1.01 1.054 1.751-.146.769-.772 1.29-1.585 1.292-1.76.007-3.52.004-5.279.004-1.825 0-3.65-.004-5.474 0-1.953.003-3.282 1.337-3.283 3.294-.002 5.379 0 10.757 0 16.133 0 1.224-.6 1.824-1.82 1.825-.39 0-.781-.001-1.172.002-.798.002-1.385.387-1.615 1.051-.236.685-.009 1.347.653 1.841 2.333 1.753 4.67 3.498 7.004 5.248l5.222 3.918c.794.592 1.425.602 2.206.017 4.076-3.055 8.152-6.108 12.226-9.163.653-.491.887-1.091.7-1.76-.19-.673-.757-1.13-1.458-1.147-.521-.017-1.043 0-1.564-.008-.938-.012-1.604-.668-1.608-1.6a695.44 695.44 0 0 1 0-5.549c.004-.918.687-1.604 1.567-1.6.882.002 1.551.688 1.557 1.612.008 1.24.002 2.475.002 3.714v.284c.987.043 1.876.298 2.665.849 2.663 1.865 2.716 5.653.097 7.644-1.763 1.34-3.542 2.659-5.314 3.987-2.044 1.529-4.095 3.048-6.127 4.596-1 .76-1.997 1.506-3.288 1.693h-1.173zM29.323.717c.917.31 1.282.951 1.26 1.91-.035 1.59-.009 3.18-.009 4.766v.382c.035.026.07.054.106.083.12-.146.224-.307.36-.435.658-.617 1.604-.606 2.213.013a1.534 1.534 0 0 1 0 2.18 149.61 149.61 0 0 1-3.152 3.154c-.654.63-1.558.612-2.211-.028a208.531 208.531 0 0 1-3.097-3.096c-.638-.65-.635-1.589-.027-2.21.616-.628 1.569-.627 2.242.013.122.114.217.261.324.392l.095-.046c.006-.12.018-.244.018-.362 0-1.602.026-3.204-.01-4.805-.02-.96.345-1.601 1.262-1.911h.626zm-15.76 25.67a1.484 1.484 0 0 1-1.296-.813c-.295-.551-.263-1.102.083-1.624.085-.13.196-.244.306-.352 2.863-2.864 5.729-5.724 8.589-8.587.4-.404.85-.64 1.428-.565a1.55 1.55 0 0 1 1.052 2.487 2.946 2.946 0 0 1-.288.315c-2.855 2.855-5.711 5.704-8.563 8.558-.346.348-.734.575-1.31.581zm1.627-10.415a1.537 1.537 0 0 1-1.541 1.569 1.55 1.55 0 0 1-1.578-1.538 1.565 1.565 0 0 1 1.548-1.575 1.548 1.548 0 0 1 1.571 1.544zm5.738 8.844a1.537 1.537 0 0 1 1.57-1.54c.869.006 1.559.703 1.55 1.564a1.567 1.567 0 0 1-1.576 1.549 1.551 1.551 0 0 1-1.544-1.573z"/></g></g></svg>