<svg xmlns="http://www.w3.org/2000/svg" width="47" height="41" viewBox="0 0 47 41"><g><g><path fill="#f58f0b" d="M46.897 32.502c-.242.93-.524 1.84-1.138 2.605-1.091 1.366-2.505 2.093-4.251 2.147-.609.022-1.219.022-1.826-.001-.305-.014-.44.086-.566.371-.94 2.163-3.155 3.48-5.464 3.28a5.513 5.513 0 0 1-4.85-4.138c-.698-2.775.827-5.582 3.55-6.532 2.632-.92 5.6.364 6.74 2.95.153.348.326.438.67.424.547-.026 1.097.002 1.644-.007 1.04-.025 1.83-.79 1.832-1.83.008-4.954.03-9.906-.01-14.855-.022-2.754-2.371-5.172-5.116-5.24-2.981-.077-5.966-.02-8.949-.02-.042 0-.084.018-.17.038v.536c0 4.037.003 8.076-.002 12.114-.002 1.354-1.172 2.25-2.397 1.845a1.825 1.825 0 0 1-1.25-1.639c-.014-.29-.004-.577-.004-.87V6.444c0-1.397-.71-2.11-2.103-2.11H5.885c-1.394 0-2.102.712-2.102 2.11v25.052c0 1.395.712 2.105 2.109 2.106.456 0 .914-.023 1.37.005.343.018.517-.07.671-.42 1.027-2.346 3.603-3.656 6.08-3.137 2.537.533 4.378 2.783 4.384 5.359.006 2.59-1.79 4.819-4.347 5.39-2.465.557-5.084-.773-6.123-3.13-.14-.318-.29-.415-.628-.421-.985-.022-2.002.046-2.947-.177C2.08 36.543.727 35.027.217 32.753c-.019-.084-.058-.165-.088-.251V5.434c.026-.055.064-.105.076-.16C.785 2.442 2.925.678 5.792.678c5.861-.001 11.722-.003 17.583 0C26.6.681 28.987 3.08 28.993 6.32v1.674h.537c2.755 0 5.51-.012 8.266.003a9.123 9.123 0 0 1 8.783 6.762c.13.482.213.975.318 1.465v16.278zm-33.992 1.102a1.828 1.828 0 0 0-1.814 1.836 1.834 1.834 0 0 0 1.836 1.819 1.835 1.835 0 0 0 1.815-1.84 1.83 1.83 0 0 0-1.837-1.815zm23.029 1.817a1.832 1.832 0 0 0-1.833-1.817 1.83 1.83 0 0 0-1.818 1.833 1.834 1.834 0 0 0 1.832 1.822 1.835 1.835 0 0 0 1.819-1.838zm-21.376-9.136c-1.764 0-3.529.006-5.293-.004-.965-.009-1.732-.716-1.822-1.647a1.831 1.831 0 0 1 1.874-2.006c3.498-.001 6.996-.005 10.494.002 1 .001 1.774.697 1.867 1.645a1.828 1.828 0 0 1-1.466 1.97 2.679 2.679 0 0 1-.544.038c-1.703.002-3.407.002-5.11.002zm17.724-7.157c0-.654-.008-1.31.002-1.965.015-1.048.797-1.843 1.805-1.851 1.03-.01 1.833.787 1.843 1.859.012 1.157 0 2.316.004 3.474.004 1.182.697 1.916 1.865 1.982 1.046.058 1.808.86 1.786 1.874-.022 1.007-.834 1.776-1.877 1.782-2.84.014-5.333-2.387-5.422-5.235-.02-.638-.002-1.278-.002-1.92h-.004zm-8.789 14.476c.395 0 .79-.016 1.185.003.98.038 1.746.832 1.755 1.805.01.99-.763 1.811-1.763 1.84-.774.024-1.55.024-2.323 0a1.814 1.814 0 0 1-1.755-1.85c.012-.97.78-1.761 1.762-1.797.38-.017.76-.001 1.14-.001z"/></g></g></svg>