<svg xmlns="http://www.w3.org/2000/svg" width="41" height="40" viewBox="0 0 41 40"><g><g><path fill="#f58f0b" d="M39.23 39.972h-.624c-.688-.246-1.171-.672-1.243-1.441-.11-1.184-.651-1.683-1.843-1.683H5.468c-.117 0-.234-.003-.35.003-.774.042-1.442.636-1.47 1.408-.031.886-.454 1.427-1.265 1.713h-.625c-.63-.203-1.048-.62-1.249-1.25v-.858c.026-.1.057-.196.077-.297.298-1.48 1.114-2.576 2.435-3.3.202-.11.414-.2.656-.315-.5-1.146-.35-2.334-.353-3.513-.011-3.948-.005-7.9-.005-11.85v-.487c-1.169.038-2.355.19-2.81-1.239v-.625c.315-.939.979-1.324 1.947-1.25.28.02.562 0 .863 0v-.515c0-4.189.014-8.378-.01-12.567C3.304.949 3.654.309 4.57-.002h.624c.915.313 1.265.951 1.26 1.908-.024 4.203-.01 8.404-.01 12.604v.451h28.103v-.49c0-4.187.014-8.376-.01-12.565-.005-.957.344-1.597 1.26-1.908h.624c.915.313 1.264.951 1.26 1.908-.024 4.203-.01 8.404-.01 12.604V15c1.167-.039 2.355-.192 2.81 1.238v.625c-.317.934-.978 1.323-1.947 1.251-.279-.02-.561-.003-.864-.003v.516c0 4.444.01 8.888-.013 13.332-.003.599-.178 1.199-.274 1.796-.011.074-.02.147-.03.224.087.042.157.074.227.105 1.482.647 2.409 1.76 2.793 3.33l.108.45v.858c-.202.63-.619 1.046-1.25 1.25zm-16.99-6.26c-.062-.577-.17-1.14-.176-1.707-.022-1.988-.01-3.979-.008-5.968.004-2.756 2.055-4.831 4.816-4.791 2.55.03 5.109-.194 7.65.17V18.14H6.471v3.296c.486-.069.946-.186 1.407-.19a297.6 297.6 0 0 1 6.518-.005c2.432.03 4.53 2.096 4.52 4.529-.012 2.643.196 5.296-.163 7.942h3.486zM9.565 24.36c-.59 0-1.124-.02-1.655.004a1.524 1.524 0 0 0-1.46 1.496 434.562 434.562 0 0 0 0 6.358 1.515 1.515 0 0 0 1.496 1.502c2.119.015 4.238.015 6.356 0a1.515 1.515 0 0 0 1.5-1.499c.017-2.12.015-4.24.001-6.358-.005-.75-.561-1.394-1.304-1.476-.587-.063-1.186-.011-1.812-.011 0 .502.004.98 0 1.457-.008.951-.668 1.645-1.56 1.647-.89 0-1.554-.696-1.561-1.646-.004-.476-.001-.955-.001-1.474zm18.736.007c-.614 0-1.186-.036-1.751.01-.768.062-1.362.723-1.366 1.502a517.03 517.03 0 0 0 0 6.32 1.525 1.525 0 0 0 1.518 1.522c2.106.014 4.212.014 6.317 0a1.525 1.525 0 0 0 1.521-1.52c.015-2.106.012-4.212.001-6.32-.004-.713-.472-1.35-1.176-1.451-.628-.093-1.28-.02-1.942-.02 0 .497.007.988-.001 1.48-.015.914-.7 1.599-1.578 1.59-.86-.011-1.527-.693-1.541-1.586-.008-.491-.002-.986-.002-1.527zm-4.06-24.37c.752.208 1.496.42 2.13.903 1.236.944 1.904 2.19 1.924 3.744.024 1.86.01 3.723.004 5.583-.002.947-.672 1.641-1.565 1.638-.89-.003-1.552-.698-1.554-1.652-.005-1.782 0-3.562-.002-5.346-.001-1.115-.627-1.741-1.736-1.743h-1.387c0 .527.008 1.04-.002 1.555-.013.64-.307 1.121-.883 1.405-1.02.502-2.2-.221-2.233-1.368-.016-.517-.003-1.033-.003-1.582-.616 0-1.201-.042-1.777.012-.797.074-1.343.755-1.345 1.604-.005 1.847.007 3.695-.006 5.543-.008 1.095-1.032 1.827-2.05 1.492-.606-.202-1.057-.758-1.061-1.404-.012-2.004-.048-4.008.012-6.01.063-2.085 1.685-3.864 3.789-4.289.085-.018.167-.055.251-.084h7.495z"/></g></g></svg>