<svg xmlns="http://www.w3.org/2000/svg" width="15" height="24" viewBox="0 0 15 24"><g><g><path fill="#fff" d="M4.102.569h6.232c.042.015.082.035.124.04 2.211.293 3.874 2.148 3.879 4.374.01 4.664.008 9.323 0 13.986a4.405 4.405 0 0 1-2.83 4.1c-.376.144-.781.212-1.173.316H4.102c-.042-.014-.082-.034-.124-.04C1.779 23.057.105 21.199.1 18.992.088 14.315.09 9.639.099 4.962.103 3.102 1.318 1.427 3.074.825 3.407.713 3.759.653 4.102.57zM1.876 11.975v6.86c0 1.606 1.161 2.767 2.764 2.767 1.713.002 3.427.002 5.14 0 1.62 0 2.78-1.156 2.78-2.775V5.13c0-1.62-1.157-2.778-2.775-2.78H4.667c-1.636.002-2.79 1.156-2.79 2.785l-.001 6.84zm5.343-6.06c-.296 0-.592.007-.888 0a.889.889 0 1 1-.003-1.78 91.107 91.107 0 0 1 1.777 0 .886.886 0 0 1 .893.888.887.887 0 0 1-.89.892c-.296.007-.592 0-.889 0zm.009 12.122c.289 0 .578-.003.867.002.518.01.908.398.903.9-.005.49-.392.873-.902.879-.585.007-1.17.007-1.755 0-.518-.006-.908-.4-.903-.897.005-.494.392-.873.901-.88.296-.007.593-.004.889-.004z"/></g></g></svg>