<svg xmlns="http://www.w3.org/2000/svg" width="15" height="24" viewBox="0 0 15 24"><g><g><path fill="#1c1a18" d="M4.102.57h6.232c.042.015.082.035.124.04 2.211.291 3.874 2.147 3.879 4.373.01 4.665.008 9.324 0 13.986a4.405 4.405 0 0 1-2.83 4.101c-.376.143-.781.21-1.173.315H4.102c-.042-.014-.082-.035-.124-.041C1.779 23.057.105 21.198.1 18.992.088 14.316.09 9.64.099 4.962.103 3.105 1.318 1.427 3.074.827c.333-.112.685-.172 1.028-.257zM1.876 11.974v6.862c0 1.604 1.161 2.764 2.764 2.764 1.713.002 3.427.002 5.14 0 1.62 0 2.78-1.156 2.78-2.774V5.13c0-1.62-1.157-2.778-2.775-2.78H4.667c-1.636.002-2.79 1.155-2.79 2.786l-.001 6.839zm5.343-6.06c-.296 0-.592.006-.888 0a.887.887 0 0 1-.893-.888c0-.49.385-.884.89-.892a85.765 85.765 0 0 1 1.777 0 .885.885 0 0 1 .893.888.887.887 0 0 1-.89.892c-.296.006-.592 0-.889 0zm.009 12.122c.289 0 .578-.003.867.001.518.01.908.4.903.902-.005.49-.392.873-.902.88-.585.005-1.17.005-1.755 0-.518-.007-.908-.402-.903-.899.005-.494.392-.873.901-.881.296-.006.593-.003.889-.003z"/></g></g></svg>