<svg xmlns="http://www.w3.org/2000/svg" width="23" height="37" viewBox="0 0 23 37"><g><g><path fill="#f58f0b" d="M6.59.047h9.935c.066.022.13.057.198.063 3.524.465 6.175 3.422 6.183 6.976.018 7.43.014 14.861.001 22.29a7.017 7.017 0 0 1-4.512 6.54c-.6.232-1.245.336-1.87.502H6.59c-.065-.022-.13-.05-.197-.06C2.887 35.897.218 32.93.209 29.417.191 21.963.194 14.509.21 7.045.213 4.088 2.15 1.415 4.95.46 5.482.279 6.042.182 6.589.047zM3.04 18.23v10.936c.001 2.557 1.851 4.411 4.406 4.411h8.195c2.583 0 4.43-1.844 4.431-4.421V7.316c0-2.583-1.844-4.428-4.424-4.428H7.49c-2.607 0-4.448 1.838-4.449 4.437V18.23zm8.519-9.657c-.473 0-.945.01-1.417-.003-.807-.02-1.422-.635-1.423-1.412a1.416 1.416 0 0 1 1.418-1.43c.944-.005 1.889-.005 2.833 0 .808.013 1.422.636 1.424 1.425.001.779-.613 1.397-1.418 1.417-.472.012-.945.003-1.417.003zm.014 19.323c.46 0 .92-.006 1.381 0 .827.012 1.448.635 1.44 1.436-.008.782-.625 1.392-1.437 1.398-.933.013-1.866.013-2.799 0-.826-.006-1.448-.634-1.44-1.43.009-.782.626-1.392 1.438-1.398.472-.012.944-.006 1.417-.006z"/></g></g></svg>