<svg xmlns="http://www.w3.org/2000/svg" width="35" height="47" viewBox="0 0 35 47"><g><g><path fill="#f58f0b" d="M22.52.606c.683.2 1.406.316 2.044.612 2.785 1.292 4.228 3.507 4.325 6.576.034 1.061.012 2.124.002 3.187-.003.234.048.365.286.472 2.232 1.001 3.53 3.167 3.292 5.455-.253 2.422-1.96 4.28-4.412 4.802-.053.011-.103.029-.291.082.372.075.613.122.853.173a7.183 7.183 0 0 1 5.662 6.91c.007.613.008 1.227 0 1.84-.013 1.099-.768 1.854-1.875 1.856-3.547.005-7.093.006-10.64 0-1.077-.003-1.848-.765-1.846-1.836.002-1.224-.117-2.46.256-3.655.91-2.91 2.866-4.648 5.868-5.2.083-.016.164-.04.288-.07-.557-.197-1.093-.322-1.568-.566-2.004-1.028-3.077-2.691-3.034-4.945.043-2.237 1.182-3.84 3.192-4.803.287-.137.395-.269.389-.585-.021-1.018-.001-2.036-.01-3.053-.016-2.099-1.568-3.655-3.67-3.658a4006.27 4006.27 0 0 0-14.23 0c-2.075.004-3.645 1.567-3.646 3.636-.006 10.505-.006 21.01 0 31.514.001 2.069 1.572 3.632 3.646 3.636 4.758.01 9.517.01 14.275 0 2.046-.005 3.6-1.57 3.626-3.614.006-.493-.012-.987.006-1.48a1.79 1.79 0 0 1 1.688-1.724c.94-.05 1.817.626 1.872 1.564.078 1.312.125 2.64-.337 3.908-.99 2.718-2.908 4.347-5.764 4.86-.084.015-.165.054-.248.081H6.535c-.082-.027-.162-.068-.247-.081C2.805 45.98.17 42.997.166 39.483.152 28.89.153 18.296.166 7.703.17 4.447 2.465 1.584 5.626.81c.302-.074.606-.136.91-.204h15.983zm8.152 28.358c.029-2.066-1.8-3.73-3.869-3.565-1.85.148-3.496 1.953-3.236 3.565h7.105zm-3.567-14.349a1.799 1.799 0 0 0-1.8 1.788 1.801 1.801 0 0 0 1.788 1.801 1.803 1.803 0 0 0 1.8-1.789 1.8 1.8 0 0 0-1.788-1.8zM12.013 24.646l3.335-3.337c.264-.264.522-.536.796-.79.743-.69 1.805-.69 2.508-.007.713.691.74 1.789.028 2.539-.669.705-1.369 1.38-2.056 2.067-1.067 1.069-2.133 2.14-3.205 3.203-.892.886-1.915.89-2.798.011-1.156-1.149-2.313-2.298-3.455-3.46-.572-.583-.692-1.327-.373-2.025a1.785 1.785 0 0 1 1.732-1.046c.503.03.91.258 1.26.612.725.732 1.455 1.46 2.228 2.233zm2.504-13.265c-.598 0-1.196.01-1.793-.003-1.015-.022-1.792-.813-1.787-1.804.005-.99.785-1.771 1.808-1.782 1.18-.011 2.36-.01 3.54 0 1.051.008 1.838.792 1.833 1.803-.005 1.009-.795 1.772-1.853 1.785-.583.007-1.166.001-1.748 0zm0 28.016c-.598 0-1.196.01-1.793-.002-1.015-.022-1.792-.814-1.787-1.804.005-.992.785-1.772 1.808-1.782 1.18-.012 2.36-.01 3.54 0 1.051.008 1.838.792 1.833 1.803-.005 1.008-.795 1.772-1.853 1.784-.583.007-1.166.001-1.748.001z"/></g></g></svg>