<svg xmlns="http://www.w3.org/2000/svg" width="15" height="24" viewBox="0 0 15 24"><g><g><path fill="#fff" d="M4.102.57h6.232c.042.016.082.034.124.04 2.211.294 3.874 2.15 3.879 4.375.01 4.662.008 9.323 0 13.983a4.405 4.405 0 0 1-2.83 4.103c-.376.145-.781.21-1.173.312H4.102c-.042-.012-.082-.03-.124-.037C1.779 23.056.105 21.2.1 18.994.088 14.315.09 9.641.099 4.965.103 3.105 1.318 1.43 3.074.828 3.407.716 3.759.655 4.102.57zM1.876 11.977v6.86c0 1.603 1.161 2.765 2.764 2.765 1.713.005 3.427.005 5.14 0 1.62 0 2.78-1.156 2.78-2.774V5.131c0-1.62-1.157-2.777-2.775-2.778H4.667c-1.636.001-2.79 1.15-2.79 2.784l-.001 6.84zM7.219 5.92c-.296 0-.592.003-.888-.002-.506-.01-.892-.398-.893-.887 0-.495.385-.887.89-.894a68.569 68.569 0 0 1 1.777 0 .884.884 0 0 1 .893.89.889.889 0 0 1-.89.891c-.296.005-.592.002-.889.002zm.01 12.117c.288 0 .577-.001.866.005.518.006.908.398.903.896-.005.493-.392.875-.902.88-.585.008-1.17.008-1.755 0-.518-.005-.908-.398-.903-.895.005-.496.393-.875.901-.881.297-.006.593-.005.89-.005z"/></g></g></svg>