<svg xmlns="http://www.w3.org/2000/svg" width="27" height="27" viewBox="0 0 27 27"><g><g><path fill="#5ab030" d="M26.326 13.38c-.003 7.194-5.884 13.049-13.108 13.049h-.006c-2.194 0-4.35-.546-6.264-1.589L0 26.656l1.86-6.763a12.98 12.98 0 0 1-1.75-6.524C.112 6.174 5.992.319 13.218.319a13.06 13.06 0 0 1 9.272 3.829 12.942 12.942 0 0 1 3.836 9.231zm-2.213-.004a10.749 10.749 0 0 0-3.188-7.669 10.839 10.839 0 0 0-7.703-3.18c-6.01 0-10.897 4.863-10.9 10.842a10.782 10.782 0 0 0 1.666 5.773l.26.411-1.102 4.002L7.27 22.48l.398.234c1.673.988 3.59 1.51 5.545 1.51h.005c6.005 0 10.892-4.863 10.895-10.847zm-4.292 3.107c.082.135.082.79-.19 1.552-.274.762-1.582 1.454-2.211 1.548-.565.083-1.279.12-2.063-.13a18.065 18.065 0 0 1-1.868-.685c-3.285-1.413-5.431-4.705-5.595-4.925-.163-.216-1.337-1.767-1.337-3.37 0-1.608.846-2.394 1.146-2.723.3-.325.655-.408.874-.408.218 0 .437.002.627.012.202.01.471-.075.737.56.273.653.928 2.259 1.01 2.42.082.166.137.358.028.571-.11.218-.465.68-.82 1.118-.145.18-.334.339-.143.666.191.324.849 1.394 1.822 2.258 1.251 1.108 2.307 1.453 2.634 1.616.328.166.519.138.71-.08.19-.215.819-.953 1.037-1.278.218-.329.437-.272.737-.165.3.113 1.91.897 2.238 1.061.327.167.546.247.627.382z"/></g></g></svg>