<svg xmlns="http://www.w3.org/2000/svg" width="23" height="23" viewBox="0 0 23 23"><g><g><path fill="#fff" d="M22.653 11.646c-.002 6.02-4.921 10.916-10.964 10.916h-.005a10.996 10.996 0 0 1-5.24-1.33L.633 22.754l1.555-5.662a10.847 10.847 0 0 1-1.463-5.455C.726 5.617 5.644.724 11.689.724c2.933 0 5.686 1.136 7.756 3.199a10.828 10.828 0 0 1 3.208 7.723zm-1.851 0a9.003 9.003 0 0 0-2.667-6.418 9.064 9.064 0 0 0-6.443-2.662c-5.027 0-9.115 4.066-9.117 9.07 0 1.715.481 3.384 1.393 4.832l.217.34-.92 3.35 3.449-.901.332.198a9.148 9.148 0 0 0 4.639 1.265h.004c5.023 0 9.11-4.07 9.113-9.074zm-3.59 2.594c.069.115.069.66-.16 1.302-.228.632-1.322 1.219-1.849 1.299-.472.067-1.069.092-1.725-.113a14.934 14.934 0 0 1-1.562-.578c-2.748-1.18-4.543-3.935-4.68-4.116-.137-.18-1.119-1.476-1.119-2.818 0-1.35.708-1.999.959-2.278.251-.275.548-.344.73-.344.183 0 .366.005.526.01.168.012.394-.058.616.469.228.545.776 1.89.845 2.028.068.135.114.294.023.476-.092.182-.389.568-.685.931-.122.152-.28.286-.12.56.16.274.71 1.164 1.524 1.89 1.046.928 1.929 1.215 2.203 1.353.274.135.433.113.593-.07.16-.18.685-.793.868-1.07.182-.273.365-.225.616-.136.252.09 1.599.75 1.872.889.274.137.457.203.525.316z"/></g></g></svg>